<?xml version="1.0" standalone="no"?>
<!DOCTYPE svg PUBLIC "-//W3C//DTD SVG 20010904//EN"
 "http://www.w3.org/TR/2001/REC-SVG-20010904/DTD/svg10.dtd">
<svg version="1.0" xmlns="http://www.w3.org/2000/svg"
 width="700.000000pt" height="700.000000pt" viewBox="0 0 700.000000 700.000000"
 preserveAspectRatio="xMidYMid meet">
<metadata>
Created by potrace 1.14, written by Peter Selinger 2001-2017
</metadata>
<g transform="translate(0.000000,700.000000) scale(0.100000,-0.100000)"
fill="#000000" stroke="none">
<path d="M3278 6995 c-1 -1 -42 -5 -89 -9 -47 -4 -95 -8 -105 -10 -10 -2 -48
-7 -84 -12 -36 -4 -67 -8 -70 -9 -3 -1 -25 -5 -50 -9 -25 -4 -101 -21 -170
-38 -69 -16 -135 -31 -147 -34 -40 -8 -264 -84 -367 -126 -103 -41 -339 -154
-436 -209 -95 -54 -303 -194 -406 -275 -444 -345 -822 -822 -1036 -1307 -27
-62 -53 -121 -58 -132 -40 -83 -128 -358 -169 -525 -24 -103 -58 -298 -67
-385 -2 -22 -7 -76 -11 -120 -15 -156 -8 -596 12 -705 2 -14 7 -45 9 -70 13
-115 32 -217 72 -375 26 -104 82 -289 94 -315 5 -8 25 -60 45 -115 21 -55 71
-167 111 -250 219 -451 526 -840 921 -1167 85 -71 327 -248 338 -248 3 0 36
-20 75 -45 145 -93 428 -228 627 -299 78 -28 292 -94 325 -100 13 -2 41 -9 63
-15 35 -9 124 -27 230 -46 17 -2 50 -7 75 -11 25 -3 56 -7 70 -10 157 -25 682
-25 842 1 13 2 46 6 73 10 28 3 59 8 70 10 11 3 31 7 45 9 67 11 112 20 185
38 44 10 87 21 96 23 9 2 49 13 90 25 1096 320 1970 1159 2335 2243 73 216
141 516 160 702 3 39 8 84 11 100 8 56 10 540 2 605 -4 36 -10 90 -13 120 -4
30 -8 66 -10 80 -2 14 -7 50 -11 80 -4 30 -9 58 -11 61 -2 4 -6 24 -10 45 -11
77 -73 312 -115 434 -206 613 -575 1155 -1074 1575 -97 82 -346 265 -360 265
-2 0 -36 20 -74 45 -92 59 -328 179 -466 237 -243 101 -544 187 -785 223 -25
4 -53 9 -62 11 -9 1 -43 6 -75 9 -32 4 -76 9 -98 12 -44 5 -541 13 -547 8z
m537 -388 c17 -3 57 -8 90 -12 32 -4 66 -8 75 -10 35 -6 106 -19 120 -20 8 -2
49 -10 90 -20 447 -102 870 -303 1227 -582 133 -104 153 -122 308 -278 328
-332 569 -717 725 -1160 51 -147 118 -416 136 -550 3 -27 7 -57 9 -65 21 -110
32 -452 20 -625 -4 -53 -21 -203 -30 -260 -12 -83 -19 -120 -37 -195 -11 -47
-22 -95 -24 -108 -10 -49 -76 -258 -110 -345 -47 -121 -160 -354 -212 -441
-23 -37 -42 -70 -42 -71 0 -17 -188 -276 -287 -394 -105 -127 -351 -355 -533
-494 -281 -214 -696 -408 -1085 -506 -113 -28 -138 -34 -217 -46 -18 -3 -44
-7 -58 -10 -40 -7 -91 -13 -160 -20 -36 -3 -83 -8 -105 -10 -98 -10 -432 -4
-535 9 -299 40 -506 86 -714 161 -173 62 -234 88 -381 163 -724 370 -1280
1011 -1540 1775 -48 141 -109 379 -120 468 -4 30 -8 56 -10 59 -2 3 -6 37 -10
75 -4 39 -10 79 -12 90 -9 37 -11 519 -2 595 26 233 28 246 50 350 127 594
406 1119 826 1550 62 63 147 144 190 180 43 36 83 69 89 75 35 31 96 75 199
147 240 165 552 315 836 401 145 44 335 88 439 102 30 4 64 9 75 11 11 3 54 7
95 10 41 3 77 8 79 9 5 6 511 -2 546 -8z"/>
<path d="M3485 6148 c-10 -32 -41 -64 -76 -78 -29 -12 -39 -30 -17 -30 23 0
81 -54 95 -89 l15 -36 12 35 c11 35 90 105 107 94 5 -3 9 -2 9 3 -1 4 -20 17
-43 29 -27 13 -49 34 -62 57 -23 43 -31 46 -40 15z"/>
<path d="M1822 5590 c-89 -20 -131 -133 -79 -211 53 -80 152 -88 220 -17 32
34 37 45 37 86 0 101 -78 163 -178 142z"/>
<path d="M5102 5590 c-148 -34 -128 -261 24 -275 118 -11 196 119 131 216 -35
53 -91 74 -155 59z"/>
<path d="M2498 5471 c-59 -139 -79 -235 -83 -396 -2 -77 0 -162 6 -190 5 -27
12 -63 15 -80 9 -51 54 -176 89 -250 172 -356 530 -565 970 -566 72 -1 146 2
165 6 301 55 455 128 626 299 91 92 127 141 183 253 87 173 121 323 116 518
-2 72 -6 144 -9 160 -21 98 -51 198 -81 263 -39 84 -30 83 -154 26 -113 -52
-257 -153 -347 -244 l-82 -82 -68 21 c-114 33 -205 45 -349 45 -142 0 -256
-15 -382 -53 -30 -9 -34 -6 -75 38 -105 113 -261 224 -406 287 -42 19 -81 34
-87 34 -5 0 -27 -40 -47 -89z"/>
<path d="M1277 5169 c-13 -99 -110 -233 -202 -282 -50 -27 -132 -55 -165 -57
-14 -1 -2 -7 30 -14 118 -26 228 -104 287 -203 14 -25 36 -77 49 -116 18 -58
23 -66 23 -40 1 44 34 127 72 182 64 94 209 181 299 181 33 0 22 7 -22 14 -88
14 -176 64 -247 141 -55 60 -101 159 -104 223 -1 29 -15 9 -20 -29z"/>
<path d="M5703 5204 c7 -8 -20 -99 -45 -147 -56 -111 -219 -224 -327 -228 -15
-1 -2 -6 29 -13 127 -28 239 -112 298 -225 29 -56 49 -124 43 -146 -2 -7 1 -7
7 0 6 6 13 25 16 44 8 57 62 154 116 208 58 59 153 109 232 122 29 5 42 10 28
11 -107 8 -230 77 -299 166 -39 51 -80 147 -81 187 0 15 -5 27 -12 27 -6 0 -9
-3 -5 -6z"/>
<path d="M930 4072 c-77 -37 -106 -133 -62 -204 26 -42 49 -56 104 -63 141
-18 214 167 100 252 -37 28 -102 34 -142 15z"/>
<path d="M5942 4064 c-116 -69 -82 -239 51 -261 48 -7 122 28 143 69 67 129
-71 265 -194 192z"/>
<path d="M2598 3987 c-94 -42 -160 -120 -191 -222 -53 -181 44 -376 214 -432
151 -50 298 18 376 172 93 183 0 424 -188 490 -58 21 -156 17 -211 -8z"/>
<path d="M3835 3512 c-38 -8 -100 -40 -128 -66 l-28 -26 -8 23 c-14 37 -39 51
-93 51 -42 0 -54 -4 -73 -26 -23 -27 -23 -27 -24 -389 -1 -306 1 -366 15 -394
15 -31 49 -55 80 -55 26 0 82 30 90 48 4 9 8 135 9 279 l2 263 27 41 c66 99
219 91 267 -15 16 -36 19 -69 19 -289 0 -273 4 -294 59 -317 38 -15 82 -5 112
26 23 24 23 27 24 287 1 242 3 266 21 297 29 50 66 73 126 77 70 6 115 -19
146 -77 21 -42 22 -55 22 -293 0 -274 4 -294 60 -317 40 -17 87 -3 114 33 20
27 21 40 20 280 0 292 -2 315 -36 388 -55 118 -159 180 -291 173 -87 -4 -191
-49 -233 -100 -9 -11 -19 -7 -50 23 -21 20 -58 45 -82 55 -42 19 -126 29 -167
20z"/>
<path d="M1454 3485 c-58 -24 -71 -100 -25 -146 l29 -29 136 0 c75 0 136 -3
136 -6 0 -3 -68 -114 -152 -247 -217 -345 -206 -322 -176 -383 19 -40 48 -44
299 -44 227 0 243 1 270 20 35 25 48 80 28 117 -23 43 -53 50 -199 50 -109 0
-135 3 -134 14 1 8 76 133 168 279 180 286 187 304 142 356 l-23 28 -235 2
c-166 1 -244 -2 -264 -11z"/>
<path d="M2289 3472 c-259 -130 -320 -505 -118 -726 139 -153 397 -180 555
-60 19 15 36 25 37 23 2 -2 9 -16 16 -31 28 -55 121 -62 161 -11 19 25 20 39
20 344 0 176 -4 319 -9 319 -5 0 -14 -6 -20 -14 -19 -23 -125 -65 -172 -69
-49 -4 -50 -6 -24 -62 23 -49 31 -147 16 -201 -15 -55 -62 -118 -112 -150 -59
-37 -167 -45 -230 -17 -65 29 -113 76 -139 135 -31 73 -25 185 13 250 28 48
77 91 130 113 31 13 38 15 55 15 4 1 -3 9 -16 20 -13 11 -43 49 -66 85 l-43
64 -54 -27z"/>
<path d="M3185 3486 c-62 -26 -60 -15 -61 -410 -2 -395 0 -410 55 -434 38 -17
79 -8 110 23 l26 25 0 375 0 375 -25 24 c-32 31 -67 38 -105 22z"/>
<path d="M4885 3486 c-59 -25 -60 -28 -60 -280 -1 -127 3 -253 7 -281 19 -123
112 -240 225 -284 73 -29 200 -38 263 -20 25 7 51 13 58 15 28 5 115 69 146
108 80 98 88 139 90 434 2 274 -2 290 -68 312 -29 9 -41 8 -70 -5 -19 -9 -38
-24 -43 -33 -4 -9 -10 -127 -13 -262 -6 -279 -11 -300 -89 -355 -36 -25 -51
-30 -104 -29 -79 0 -131 25 -172 83 l-30 43 -5 254 -5 254 -25 24 c-32 31 -67
38 -105 22z"/>
<path d="M1245 2358 c-85 -29 -122 -129 -75 -205 73 -120 260 -71 260 68 0
101 -92 169 -185 137z"/>
<path d="M5672 2360 c-67 -16 -107 -76 -100 -152 8 -80 70 -130 152 -122 128
11 172 178 68 253 -35 24 -75 31 -120 21z"/>
<path d="M3506 1301 c-11 -69 -62 -165 -115 -219 -61 -62 -128 -99 -216 -121
l-70 -18 55 -6 c159 -19 312 -167 345 -336 l11 -55 12 56 c16 82 56 154 121
218 57 58 145 107 207 117 45 7 43 19 -4 27 -55 8 -153 60 -196 103 -70 70
-105 133 -133 243 l-9 35 -8 -44z"/>
<path d="M2571 1232 c-144 -69 -85 -290 72 -269 104 14 159 133 102 221 -33
50 -121 74 -174 48z"/>
<path d="M4334 1239 c-86 -24 -130 -131 -84 -206 55 -91 186 -95 241 -7 68
111 -32 247 -157 213z"/>
</g>
</svg>
