<svg width="31" height="38" viewBox="0 0 31 38" fill="none" xmlns="http://www.w3.org/2000/svg">
<path d="M29.3954 29.098L29.3956 29.0982C29.7901 29.6023 30.0827 30.1378 30.1975 30.712C30.3133 31.2913 30.2448 31.8934 29.9436 32.5185C29.6333 33.1655 29.1979 33.6131 28.657 33.8918C28.1203 34.1684 27.4972 34.2696 26.8226 34.2565M29.3954 29.098L26.8275 34.0065M29.3954 29.098C28.1665 27.5316 27.6031 25.7519 27.6375 23.7446C27.6425 23.4517 27.648 23.1585 27.6535 22.8649C27.6921 20.8036 27.7311 18.7271 27.6068 16.6622L27.6068 16.662C27.5102 15.0761 27.2732 13.4226 26.7243 11.9182M29.3954 29.098L26.7243 11.9182M26.8226 34.2565L26.8275 34.0065M26.8226 34.2565C26.8226 34.2565 26.8226 34.2565 26.8227 34.2565L26.8275 34.0065M26.8226 34.2565C25.8382 34.2376 24.8534 34.2401 23.8659 34.2436L23.7286 34.2441C22.7874 34.2474 21.8438 34.2508 20.9005 34.2363L20.8998 34.2363C20.5764 34.2303 20.3443 34.2704 20.1526 34.3677C19.9626 34.4643 19.786 34.6306 19.5997 34.9256L19.3883 34.7922C19.7919 34.153 20.2157 33.9737 20.9044 33.9863C21.8451 34.0008 22.7865 33.9974 23.7281 33.9941C24.761 33.9904 25.7942 33.9867 26.8275 34.0065M26.7243 11.9182C25.3629 8.17692 22.6015 5.81812 18.8327 4.61128C18.8329 4.59926 18.8331 4.58725 18.8333 4.57526C18.8355 4.42853 18.8377 4.2834 18.8307 4.14505L18.8307 4.14459C18.7263 2.1527 17.3791 0.75 15.5009 0.75C14.5932 0.75 13.8296 1.06949 13.2629 1.65017C12.6998 2.22721 12.3471 3.04505 12.2208 4.01912C12.2058 4.1322 12.1136 4.29991 11.9491 4.47304C11.7895 4.64107 11.597 4.77686 11.4398 4.84008C6.3288 6.88078 3.4605 11.0488 3.44508 16.5654L3.44507 16.5655C3.44255 17.7228 3.44318 18.88 3.44381 20.0368V20.0371C3.44444 21.1941 3.44507 22.3508 3.44255 23.5073M3.44255 23.5073C3.44255 23.5073 3.44255 23.5073 3.44255 23.5073L3.69255 23.5079L3.44255 23.5073Z" fill="#565DDF" stroke="#565DDF" stroke-width="0.5"/>
</svg>
