<svg width="26" height="18" viewBox="0 0 26 18" fill="none" xmlns="http://www.w3.org/2000/svg">
<g clip-path="url(#clip0_71_4025)">
<path d="M25.238 3.53597C24.9278 3.45382 24.657 3.54532 24.3855 3.67622C22.6837 4.49367 20.9806 5.30778 19.2775 6.1239C19.1804 6.16998 19.0827 6.2154 18.9836 6.26148C18.9252 6.19937 18.8777 6.15195 18.8336 6.10186C17.1637 4.20783 15.4946 2.3138 13.8247 0.419761C13.3319 -0.139233 12.6551 -0.140568 12.1644 0.415754C10.4898 2.31647 8.81518 4.21718 7.14126 6.11856C7.09782 6.16798 7.0666 6.22809 7.03605 6.27484C6.90301 6.21339 6.81884 6.17599 6.73602 6.13659C5.01798 5.31313 3.30402 4.48298 1.57852 3.67488C1.34772 3.56669 1.0538 3.50391 0.804006 3.53597C0.224313 3.60943 -0.155135 4.22586 0.062759 4.92176C1.33822 8.99901 2.5906 13.0829 3.85113 17.1649C4.03237 17.7506 4.36837 17.999 4.98472 17.999C10.3194 17.9997 15.6541 17.999 20.9881 17.999C21.6227 17.999 21.9506 17.7566 22.1373 17.1528C23.1059 14.0179 24.0718 10.8824 25.0418 7.74812C25.3568 6.73098 25.6806 5.71651 26.0003 4.70137V4.30133C25.8625 3.93468 25.6507 3.64416 25.238 3.53597ZM23.2505 6.67956C22.3165 9.70293 21.3811 12.7256 20.4525 15.751C20.3941 15.9414 20.3154 16.0055 20.1056 16.0048C15.3635 15.9981 10.6221 15.9988 5.88006 16.0015C5.7185 16.0015 5.61058 15.9988 5.5488 15.7984C4.6141 12.7403 3.66718 9.68557 2.72365 6.63014C2.70736 6.57737 2.69378 6.52328 2.66256 6.40908C3.64002 6.87657 4.55912 7.31602 5.47821 7.75547C5.88142 7.94848 6.28326 8.14416 6.68579 8.3365C7.28245 8.62101 7.69788 8.53619 8.12959 8.04599C9.70441 6.25814 11.2799 4.47096 12.8554 2.68379C12.8934 2.64038 12.9348 2.59964 12.9952 2.53619C13.1228 2.67911 13.245 2.81268 13.3652 2.94892C14.8572 4.64127 16.3492 6.33428 17.8412 8.02729C18.296 8.54354 18.6964 8.62568 19.3243 8.32582C20.5407 7.74412 21.7565 7.16108 22.9729 6.57871C23.0713 6.53196 23.1704 6.48655 23.3123 6.41976C23.2858 6.53129 23.2729 6.60676 23.2505 6.67956Z" fill="#565DDF"/>
<path d="M19 9.98943V10.0106C15.6927 10.0106 13.0106 12.6927 13.0106 16H12.9882C12.9882 12.6927 10.3073 10.0106 7 10.0106V9.98943C10.3073 9.98943 12.9882 7.3073 12.9882 4H13.0106C13.0106 7.3073 15.6927 9.98943 19 9.98943Z" fill="#565DDF"/>
</g>
<defs>
<clipPath id="clip0_71_4025">
<rect width="26" height="18" fill="white"/>
</clipPath>
</defs>
</svg>
