<svg xmlns="http://www.w3.org/2000/svg" version="1.1" xmlns:xlink="http://www.w3.org/1999/xlink" xmlns:svgjs="http://svgjs.com/svgjs" width="1000" height="1000"><rect width="1000" height="1000" rx="200" ry="200" ="#4f53b7"></rect><g transform="matrix(1.5715857300015714,0,0,1.5715857300015714,149.99999895339528,246.8489695647421)"><svg xmlns="http://www.w3.org/2000/svg" version="1.1" xmlns:xlink="http://www.w3.org/1999/xlink" xmlns:svgjs="http://svgjs.com/svgjs" width="445.41" height="322.16"><svg id="Layer_2" data-name="Layer 2" xmlns="http://www.w3.org/2000/svg" viewBox="0 fill0 445.41 322.16">
  <defs>
    <style>
      .cls-1 {
        fill: #4e53b7;
      }

      .cls-1, .cls-2, .cls-3 {
        stroke-width: 0px;
      }

      .cls-2 {
        fill: #000202;
      }

      .cls-4 {
        opacity: .31;
      }

      .cls-3 {
        fill: #ffd866;
      }
    </style>
  </defs>
  <g id="Camada_1" data-name="Camada 1">
    <path class="cls-3" d="M445.41,105.96c0,22.84-3.45,44.93-9.9,65.83-.25.85-.52,1.68-.8,2.51-5.74,17.86-13.66,34.82-23.48,50.61-26.35,42.38-67.77,72.84-115.68,86.78-6.31,1.83-12.72,3.44-19.23,4.81-16.22,3.39-33.01,5.32-50.25,5.63-1.13,0-2.23.03-3.36.03h-1.21c-.72,0-1.43,0-2.15-.03-28.69-.49-56.19-5.51-81.75-14.33-37.69-13.02-70.91-36.97-94.28-69.28-14.11-19.5-25.19-41.1-32.62-64.21-.28-.83-.55-1.65-.8-2.51C3.45,150.89,0,128.8,0,105.96,0,67.85,9.6,31.85,26.67,0c44.04,15.31,82.24,41.92,110.65,76.09,25.68-8.63,53.26-13.4,82.02-13.62,1.13,0,2.23-.03,3.36-.03s2.23.03,3.36.03c28.6.5,56.01,5.49,81.5,14.26.17-.22.36-.41.52-.63C336.5,41.92,374.69,15.31,418.74,0c17.07,31.85,26.67,67.85,26.67,105.96Z"></path>
    <g>
      <path class="cls-1" d="M90.68,175.31c-2.18,0-4.38-.65-6.31-1.99-4.99-3.49-6.21-10.37-2.73-15.36,3.64-5.21,11.79-14.52,25.51-18.34,23.76-6.62,42.41,9.19,44.47,11.02,4.55,4.05,4.96,11.02.91,15.57-4.06,4.56-11.03,4.96-15.58.91-.45-.4-11.17-9.78-23.88-6.25-7.08,1.97-11.4,6.94-13.34,9.72-2.15,3.07-5.57,4.71-9.05,4.71Z"></path>
      <path class="cls-1" d="M355.59,175.31c2.18,0,4.38-.65,6.31-1.99,4.99-3.49,6.21-10.37,2.73-15.36-3.64-5.21-11.79-14.52-25.51-18.34-23.76-6.62-42.41,9.19-44.47,11.02-4.55,4.05-4.96,11.02-.91,15.57,4.06,4.56,11.03,4.96,15.58.91.45-.4,11.18-9.78,23.88-6.25,7.08,1.97,11.4,6.94,13.34,9.72,2.15,3.07,5.57,4.71,9.05,4.71Z"></path>
      <path class="cls-1" d="M48.98,53.53c4.24,1.95,13.76,5.66,18.35,8.54,15.32,9.62,25.84,21.22,32.74,30.58-5.55,2.28-11.83,5.41-18.35,9.71-14.14,9.34-26.13,21.96-31.84,30.08.48-25.3-1.38-53.62-.9-78.92Z"></path>
      <path class="cls-1" d="M398.56,132.44c-5.71-8.12-17.7-20.74-31.84-30.08-6.52-4.31-12.8-7.43-18.34-9.71,6.9-9.36,17.41-20.96,32.73-30.58,4.59-2.88,14.11-6.59,18.35-8.54.48,25.3-1.38,53.61-.9,78.91Z"></path>
      <path class="cls-1" d="M296.34,211.09c-1.74,5.71-5.54,13.84-13.68,20.27-8.52,6.7-17.84,8.44-25.21,8.44-5.68,0-10.2-1.02-12.38-1.63-10.31-2.87-17.46-8.88-22.06-14.34-4.58,5.43-11.72,11.47-22.07,14.34-2.15.61-6.7,1.63-12.35,1.63-7.39,0-16.69-1.74-25.21-8.44-8.14-6.43-11.94-14.56-13.71-20.27-1.79-5.82,1.49-12,7.31-13.79,5.85-1.79,12,1.49,13.79,7.31.83,2.7,2.59,6.51,6.26,9.4,7.06,5.57,16.25,3.4,18.01,2.9,7.78-2.15,12.19-8.36,13.71-10.92,1.74-2.93,2.81-6.29,3.2-9.93v-.11c.27-2.21.25-4.5,0-6.87v-.08c-.64-6.18-2.9-12.77-6.68-19-.01-.02-.02-.04-.03-.06-5.58-.55-9.95-5.2-9.95-10.92,0-6.09,4.94-11.03,11.04-11.03h35.21c6.09,0,11.03,4.94,11.03,11.03s-4.94,11.03-11.03,11.03h-.8c-3.75,6.15-5.98,12.63-6.65,18.78-.27,2.54-.27,4.97,0,7.34v.05s-.02.03,0,.06c.42,3.53,1.47,6.84,3.18,9.71,1.54,2.56,5.92,8.77,13.73,10.92,1.77.5,10.92,2.67,18.01-2.9,3.67-2.86,5.43-6.7,6.26-9.4,1.79-5.82,7.94-9.1,13.79-7.31,5.82,1.79,9.07,7.97,7.28,13.79Z"></path>
    </g>
    <g class="cls-4">
      <path class="cls-2" d="M425.25,198.71c-4.08,9.05-8.77,17.79-14.01,26.2-26.37,42.39-67.76,72.84-115.7,86.79-6.32,1.82-12.71,3.42-19.22,4.8-16.22,3.39-33.01,5.32-50.25,5.63-1.13,0-2.23.03-3.36.03h-1.21c-.72,0-1.43,0-2.15-.03-28.68-.5-56.21-5.52-81.75-14.34-37.7-13.02-70.91-36.96-94.27-69.28-9.05-12.47-16.82-25.81-23.22-39.85,35.14,46.83,112.63,79.35,202.6,79.35s167.38-32.49,202.54-79.29Z"></path>
    </g>
  </g>
</svg></svg></g></svg>