<svg width="162" height="53" viewBox="0 0 162 53" fill="none" xmlns="http://www.w3.org/2000/svg">
<path d="M77.0383 7.25987V7.28367C73.2417 7.28367 70.1621 10.5351 70.1621 14.5435H70.1373C70.1373 10.5351 67.0599 7.28367 63.2633 7.28367V7.25987C67.0599 7.25987 70.1373 4.0084 70.1373 0H70.1621C70.1621 4.0084 73.2417 7.25987 77.0383 7.25987Z" fill="#242424"/>
<path d="M0.58166 46.1513L13.4503 24.5241H4.10092C2.135 24.5241 0.541077 22.8412 0.541077 20.7656C0.541077 18.69 2.135 17.0071 4.10092 17.0071H20.1574C22.0512 17.0071 23.5843 18.6281 23.5843 20.6252C23.5843 21.3821 23.3814 22.1224 23.0004 22.7626L10.1317 44.3899H20.3265C22.2924 44.3899 23.8864 46.0728 23.8864 48.1484C23.8864 50.224 22.2924 51.9069 20.3265 51.9069H3.42683C1.53306 51.9069 0 50.2859 0 48.2888C0 47.5319 0.202904 46.7916 0.583913 46.1513H0.58166Z" fill="#242424"/>
<path d="M52.7778 48.3436C51.4093 49.7884 49.8222 50.8905 48.0118 51.6545C46.2015 52.4186 44.2107 52.8018 42.0397 52.8018C38.9036 52.8018 36.0675 51.9949 33.5357 50.3811C31.0016 48.7673 29.0109 46.5607 27.5635 43.7591C26.1162 40.9575 25.3925 37.8584 25.3925 34.4617C25.3925 31.0651 26.1162 27.9659 27.5635 25.1643C29.0109 22.3628 31.0016 20.1539 33.5357 18.54C36.0697 16.9262 38.9036 16.1193 42.0397 16.1193C44.2107 16.1193 46.2015 16.5025 48.0118 17.2666C49.8222 18.0306 51.4093 19.1351 52.7778 20.5775C52.7778 18.609 54.2906 17.0119 56.1551 17.0119H56.8043C58.6778 17.0119 60.1951 18.6138 60.1951 20.5918V48.3293C60.1951 50.3073 58.6778 51.9092 56.8043 51.9092H56.1551C54.2906 51.9092 52.7778 50.3121 52.7778 48.3436ZM47.8315 43.821C49.3194 42.888 50.494 41.6026 51.3597 39.9673C52.2232 38.3345 52.6561 36.4969 52.6561 34.4594C52.6561 32.4218 52.2232 30.5866 51.3597 28.9514C50.494 27.3185 49.3194 26.0332 47.8315 25.0977C46.3435 24.1646 44.6752 23.6957 42.8242 23.6957C40.9733 23.6957 39.2959 24.1623 37.7877 25.0977C36.2794 26.0332 35.0936 27.3161 34.2278 28.9514C33.3621 30.5866 32.9315 32.4218 32.9315 34.4594C32.9315 36.4969 33.3621 38.3345 34.2278 39.9673C35.0913 41.6026 36.2794 42.888 37.7877 43.821C39.2959 44.7565 40.9733 45.223 42.8242 45.223C44.6752 45.223 46.3435 44.7565 47.8315 43.821Z" fill="#242424"/>
<path d="M70.1485 17.0095C72.2137 17.0095 73.8887 18.778 73.8887 20.9584V47.9603C73.8887 50.1407 72.2137 51.9092 70.1485 51.9092C68.0834 51.9092 66.4083 50.1407 66.4083 47.9603V20.9584C66.4083 18.778 68.0834 17.0095 70.1485 17.0095Z" fill="#242424"/>
<path d="M117.349 25.4476C116.242 24.2384 114.885 23.6314 113.277 23.6314C111.467 23.6314 109.97 24.236 108.784 25.4476C107.598 26.6568 107.005 28.2182 107.005 30.1272V47.9579C107.005 50.1383 105.33 51.9068 103.265 51.9068C101.2 51.9068 99.5247 50.1383 99.5247 47.9579V30.1272C99.5247 28.2159 98.9724 26.6568 97.8654 25.4476C96.7584 24.2384 95.3809 23.6314 93.7329 23.6314C91.9631 23.6314 90.4954 24.236 89.3299 25.4476C88.162 26.6568 87.5804 28.2182 87.5804 30.1272V47.9579C87.5804 50.1383 85.9053 51.9068 83.8402 51.9068C81.7751 51.9068 80.1 50.1383 80.1 47.9579V20.2562C80.1 18.4614 81.4775 17.0095 83.1751 17.0095H84.503C86.2029 17.0095 87.5781 18.4638 87.5781 20.2562C88.5836 18.9827 89.7808 17.9854 91.1673 17.2642C92.5538 16.5429 94.0328 16.1811 95.5996 16.1811C97.41 16.1811 99.0783 16.5953 100.607 17.4236C102.135 18.252 103.42 19.4302 104.467 20.9584C105.632 19.4731 107.14 18.3044 108.991 17.4546C110.84 16.6072 112.77 16.1811 114.781 16.1811C117.033 16.1811 119.042 16.7643 120.814 17.933C122.584 19.1017 123.97 20.7346 124.976 22.8364C125.981 24.9382 126.484 27.3471 126.484 30.0653V47.9603C126.484 50.1407 124.809 51.9092 122.744 51.9092C120.679 51.9092 119.004 50.1407 119.004 47.9603V30.1296C119.004 28.2182 118.451 26.6592 117.344 25.45L117.349 25.4476Z" fill="#242424"/>
<path d="M137.45 49.9812C136.223 49.0934 135.146 47.9818 134.275 46.7059C132.382 43.9234 131.432 40.5838 131.432 36.6873V20.9584C131.432 18.778 133.107 17.0095 135.173 17.0095C137.238 17.0095 138.913 18.778 138.913 20.9584V36.6254C138.913 39.1319 139.625 41.1575 141.055 42.7071C142.482 44.2566 144.362 45.0326 146.695 45.0326C148.907 45.0326 150.706 44.2471 152.095 42.6761C153.481 41.1051 154.176 39.089 154.176 36.6254V20.9584C154.176 18.778 155.851 17.0095 157.916 17.0095C159.981 17.0095 161.656 18.778 161.656 20.9584V36.6873C161.656 39.8721 161.023 42.6737 159.756 45.0945C158.489 47.5152 156.719 49.4052 154.446 50.7619C152.174 52.1211 149.57 52.7995 146.634 52.7995C143.106 52.7995 140.045 51.8592 137.45 49.9812Z" fill="#242424"/>
</svg>
