<svg width="31" height="31" viewBox="0 0 31 31" fill="none" xmlns="http://www.w3.org/2000/svg">
<path d="M18.0837 23.2503V27.1253C18.0932 27.6367 17.9994 28.1448 17.808 28.6193C17.6167 29.0937 17.3316 29.5246 16.9699 29.8863C16.6081 30.2481 16.1772 30.5331 15.7028 30.7245C15.2284 30.9159 14.7202 31.0097 14.2088 31.0002H3.87559C3.36413 31.0097 2.856 30.9159 2.38159 30.7245C1.90719 30.5331 1.47624 30.2481 1.11452 29.8863C0.752791 29.5246 0.467716 29.0937 0.276333 28.6193C0.0849491 28.1448 -0.008813 27.6367 0.000651347 27.1253V3.87559C-0.008813 3.36413 0.0849491 2.856 0.276333 2.38159C0.467716 1.90719 0.752791 1.47624 1.11452 1.11452C1.47624 0.752791 1.90719 0.467716 2.38159 0.276333C2.856 0.0849491 3.36413 -0.008813 3.87559 0.000651347H14.2088C14.7202 -0.008813 15.2284 0.0849491 15.7028 0.276333C16.1772 0.467716 16.6081 0.752791 16.9699 1.11452C17.3316 1.47624 17.6167 1.90719 17.808 2.38159C17.9994 2.856 18.0932 3.36413 18.0837 3.87559V7.75054C18.0837 8.0931 17.9476 8.42164 17.7054 8.66387C17.4632 8.9061 17.1346 9.04219 16.7921 9.04219C16.4495 9.04219 16.121 8.9061 15.8787 8.66387C15.6365 8.42164 15.5004 8.0931 15.5004 7.75054V3.87559C15.5108 3.70327 15.4845 3.53071 15.4232 3.36931C15.362 3.2079 15.2672 3.06133 15.1451 2.93925C15.023 2.81718 14.8765 2.7224 14.7151 2.66115C14.5537 2.5999 14.3811 2.57359 14.2088 2.58395H3.87559C3.70327 2.57359 3.53071 2.5999 3.36931 2.66115C3.2079 2.7224 3.06133 2.81718 2.93925 2.93925C2.81718 3.06133 2.7224 3.2079 2.66115 3.36931C2.5999 3.53071 2.57359 3.70327 2.58395 3.87559V27.1253C2.57359 27.2976 2.5999 27.4701 2.66115 27.6315C2.7224 27.7929 2.81718 27.9395 2.93925 28.0616C3.06133 28.1837 3.2079 28.2785 3.36931 28.3397C3.53071 28.4009 3.70327 28.4273 3.87559 28.4169H14.2088C14.3811 28.4273 14.5537 28.4009 14.7151 28.3397C14.8765 28.2785 15.023 28.1837 15.1451 28.0616C15.2672 27.9395 15.362 27.7929 15.4232 27.6315C15.4845 27.4701 15.5108 27.2976 15.5004 27.1253V23.2503C15.5004 22.9077 15.6365 22.5792 15.8787 22.337C16.121 22.0947 16.4495 21.9587 16.7921 21.9587C17.1346 21.9587 17.4632 22.0947 17.7054 22.337C17.9476 22.5792 18.0837 22.9077 18.0837 23.2503ZM30.6127 14.5963L24.1545 8.13803C23.9138 7.90222 23.5899 7.7709 23.253 7.7726C22.9161 7.77431 22.5935 7.90889 22.3552 8.14712C22.117 8.38535 21.9824 8.70796 21.9807 9.04486C21.979 9.38176 22.1103 9.70572 22.3462 9.94634L26.6086 14.2088H9.04219C8.69962 14.2088 8.37108 14.3449 8.12885 14.5871C7.88662 14.8293 7.75054 15.1579 7.75054 15.5004C7.75054 15.843 7.88662 16.1715 8.12885 16.4138C8.37108 16.656 8.69962 16.7921 9.04219 16.7921H26.6086L22.3462 21.0545C22.2238 21.1712 22.1263 21.3114 22.0598 21.4669C21.9932 21.6223 21.9589 21.7896 21.9589 21.9587C21.9589 22.1277 21.9932 22.295 22.0598 22.4505C22.1263 22.6059 22.2238 22.7462 22.3462 22.8628C22.4628 22.9852 22.6031 23.0826 22.7585 23.1492C22.9139 23.2158 23.0812 23.2501 23.2503 23.2501C23.4194 23.2501 23.5867 23.2158 23.7421 23.1492C23.8975 23.0826 24.0378 22.9852 24.1545 22.8628L30.6127 16.4046C30.7351 16.2879 30.8325 16.1476 30.8991 15.9922C30.9657 15.8368 31 15.6695 31 15.5004C31 15.3313 30.9657 15.164 30.8991 15.0086C30.8325 14.8532 30.7351 14.7129 30.6127 14.5963Z" fill="#565DDF"/>
</svg>
