<svg width="36" height="36" viewBox="0 0 36 36" fill="none" xmlns="http://www.w3.org/2000/svg">
<path d="M11.4918 2H5.06091C3.28507 2 1.84546 3.43961 1.84546 5.21545V14.8618C1.84546 16.6377 3.28507 18.0773 5.06091 18.0773H11.4918C13.2677 18.0773 14.7073 16.6377 14.7073 14.8618V5.21545C14.7073 3.43961 13.2677 2 11.4918 2Z" stroke="#565DDF" stroke-width="2.5"/>
<path d="M11.4918 24.5082H5.06091C3.28507 24.5082 1.84546 25.9478 1.84546 27.7236V30.9391C1.84546 32.7149 3.28507 34.1545 5.06091 34.1545H11.4918C13.2677 34.1545 14.7073 32.7149 14.7073 30.9391V27.7236C14.7073 25.9478 13.2677 24.5082 11.4918 24.5082Z" stroke="#565DDF" stroke-width="2.5"/>
<path d="M30.7845 18.0773H24.3536C22.5778 18.0773 21.1382 19.5169 21.1382 21.2927V30.9391C21.1382 32.7149 22.5778 34.1545 24.3536 34.1545H30.7845C32.5604 34.1545 34 32.7149 34 30.9391V21.2927C34 19.5169 32.5604 18.0773 30.7845 18.0773Z" stroke="#565DDF" stroke-width="2.5"/>
<path d="M30.7845 2H24.3536C22.5778 2 21.1382 3.43961 21.1382 5.21545V8.43091C21.1382 10.2068 22.5778 11.6464 24.3536 11.6464H30.7845C32.5604 11.6464 34 10.2068 34 8.43091V5.21545C34 3.43961 32.5604 2 30.7845 2Z" stroke="#565DDF" stroke-width="2.5"/>
</svg>
