<svg width="38" height="35" viewBox="0 0 38 35" fill="none" xmlns="http://www.w3.org/2000/svg">
<path fill-rule="evenodd" clip-rule="evenodd" d="M5.59141 9.50187C4.26099 9.50187 3.18247 10.5804 3.18247 11.9108V29.2552C3.18247 30.5856 4.26097 31.6641 5.59141 31.6641H32.5715C33.902 31.6641 34.9804 30.5856 34.9804 29.2552V11.9108C34.9804 10.5804 33.902 9.50187 32.5715 9.50187H5.59141ZM0.291748 11.9108C0.291748 8.98388 2.66449 6.61115 5.59141 6.61115H32.5715C35.4985 6.61115 37.8712 8.9839 37.8712 11.9108V29.2552C37.8712 32.1821 35.4985 34.5548 32.5715 34.5548H5.59141C2.6645 34.5548 0.291748 32.1821 0.291748 29.2552V11.9108Z" fill="#565DDF"/>
<path d="M27.7536 21.5465C27.2215 21.5465 26.79 21.1151 26.79 20.583C26.79 20.0509 27.2215 19.6194 27.7536 19.6194C28.2857 19.6194 28.7172 20.0509 28.7172 20.583C28.7172 21.1151 28.2857 21.5465 27.7536 21.5465Z" fill="#565DDF"/>
<path fill-rule="evenodd" clip-rule="evenodd" d="M27.7537 21.0648C28.0198 21.0648 28.2355 20.8491 28.2355 20.583C28.2355 20.3168 28.0198 20.1012 27.7537 20.1012C27.4875 20.1012 27.2719 20.3168 27.2719 20.583C27.2719 20.8491 27.4875 21.0648 27.7537 21.0648ZM25.3447 20.583C25.3447 19.2526 26.4233 18.174 27.7537 18.174C29.084 18.174 30.1626 19.2526 30.1626 20.583C30.1626 21.9133 29.084 22.9919 27.7537 22.9919C26.4233 22.9919 25.3447 21.9133 25.3447 20.583Z" fill="#565DDF"/>
<path fill-rule="evenodd" clip-rule="evenodd" d="M25.4246 0.243967C28.7891 -0.653215 32.0897 1.88267 32.0897 5.36469V8.05649H29.199V5.36469C29.199 3.78193 27.6987 2.62928 26.1694 3.03709L4.97071 8.69007C4.97071 8.69007 4.97071 8.69007 4.97071 8.69007C3.9162 8.97128 3.18247 9.92631 3.18247 11.0177V11.9108H0.291748V11.0177C0.291748 8.61666 1.90594 6.51561 4.22587 5.89696L4.22588 5.89696L25.4246 0.243969L25.7967 1.63962L25.4246 0.243967Z" fill="#565DDF"/>
</svg>
