<?xml version="1.0" standalone="no"?>
<!DOCTYPE svg PUBLIC "-//W3C//DTD SVG 20010904//EN"
 "http://www.w3.org/TR/2001/REC-SVG-20010904/DTD/svg10.dtd">
<svg version="1.0" xmlns="http://www.w3.org/2000/svg"
 width="87.000000pt" height="99.000000pt" viewBox="0 0 87.000000 99.000000"
 preserveAspectRatio="xMidYMid meet">

<g transform="translate(0.000000,99.000000) scale(0.100000,-0.100000)"
fill="#000000" stroke="none">
<path d="M420 960 c0 -5 7 -10 16 -10 8 0 12 5 9 10 -3 6 -10 10 -16 10 -5 0
-9 -4 -9 -10z"/>
<path d="M151 871 c-17 -11 -7 -41 13 -41 22 0 30 20 15 36 -9 8 -19 10 -28 5z"/>
<path d="M683 869 c-14 -14 -6 -39 12 -39 18 0 26 15 19 34 -7 19 -16 20 -31
5z"/>
<path d="M50 771 l-25 -26 28 -27 c17 -17 27 -21 27 -13 0 8 9 20 19 27 18 13
18 14 -3 39 l-22 25 -24 -25z"/>
<path d="M775 781 c-3 -11 -12 -22 -20 -25 -12 -4 -10 -11 10 -30 l25 -25 23
23 23 22 -28 27 c-25 25 -27 26 -33 8z"/>
<path d="M239 698 c-19 -73 7 -175 58 -220 50 -46 160 -62 226 -34 81 33 138
151 118 240 -14 57 -23 61 -70 31 -22 -15 -41 -30 -41 -34 0 -3 -40 -6 -90 -6
-76 1 -93 4 -112 22 -22 20 -61 43 -72 43 -3 0 -10 -19 -17 -42z m65 -26 c15
-18 15 -20 -4 -37 -20 -18 -20 -18 -20 18 0 43 1 43 24 19z m296 -19 c0 -36 0
-36 -20 -18 -19 17 -19 19 -4 37 23 24 24 24 24 -19z m-235 -57 c17 -12 16
-14 -18 -18 -46 -5 -52 25 -6 31 3 1 14 -5 24 -13z m189 8 c9 -3 16 -12 16
-20 0 -10 -9 -12 -32 -7 -41 7 -46 12 -28 23 18 11 23 12 44 4z m-91 -10 c3
-3 1 -15 -6 -25 -16 -26 5 -48 28 -29 18 15 28 9 19 -13 -8 -22 -123 -23 -131
-1 -7 20 6 32 17 15 4 -8 15 -11 24 -8 18 7 21 32 6 42 -6 4 -8 11 -5 16 7 10
38 12 48 3z"/>
<path d="M3 604 c-9 -23 13 -40 32 -24 12 10 13 16 4 26 -15 18 -28 18 -36 -2z"/>
<path d="M821 606 c-9 -10 -8 -16 4 -26 19 -16 41 1 32 24 -8 20 -21 20 -36 2z"/>
<path d="M250 410 c-39 -39 -12 -120 39 -120 22 0 61 44 61 70 0 26 -39 70
-61 70 -10 0 -28 -9 -39 -20z"/>
<path d="M52 303 c5 -26 38 -29 38 -4 0 15 -6 21 -21 21 -14 0 -19 -5 -17 -17z"/>
<path d="M770 299 c0 -14 5 -19 17 -17 26 5 29 38 4 38 -15 0 -21 -6 -21 -21z"/>
<path d="M410 110 l-25 -25 25 -26 25 -26 22 28 c19 23 20 28 8 33 -9 3 -19
14 -23 23 -6 16 -9 16 -32 -7z"/>
<path d="M270 110 c0 -13 7 -20 20 -20 13 0 20 7 20 20 0 13 -7 20 -20 20 -13
0 -20 -7 -20 -20z"/>
<path d="M557 123 c-14 -13 -6 -33 13 -33 13 0 20 7 20 20 0 19 -20 27 -33 13z"/>
</g>
</svg>
