<svg width="6" height="6" viewBox="0 0 87 99" fill="none" xmlns="http://www.w3.org/2000/svg">
<path d="M16.4472 16.0393C17.7238 16.0393 18.7587 14.9466 18.7587 13.5988C18.7587 12.251 17.7238 11.1583 16.4472 11.1583C15.1706 11.1583 14.1357 12.251 14.1357 13.5988C14.1357 14.9466 15.1706 16.0393 16.4472 16.0393Z" fill="#242424"/>
<path d="M2.3115 41.8904C3.58811 41.8904 4.623 40.7978 4.623 39.4499C4.623 38.1021 3.58811 37.0095 2.3115 37.0095C1.03489 37.0095 0 38.1021 0 39.4499C0 40.7978 1.03489 41.8904 2.3115 41.8904Z" fill="#242424"/>
<path d="M7.22166 71.2854C8.49827 71.2854 9.53316 70.1928 9.53316 68.8449C9.53316 67.4971 8.49827 66.4044 7.22166 66.4044C5.94505 66.4044 4.91016 67.4971 4.91016 68.8449C4.91016 70.1928 5.94505 71.2854 7.22166 71.2854Z" fill="#242424"/>
<path d="M28.8793 90.4737C30.1559 90.4737 31.1908 89.3811 31.1908 88.0333C31.1908 86.6854 30.1559 85.5928 28.8793 85.5928C27.6026 85.5928 26.5677 86.6854 26.5677 88.0333C26.5677 89.3811 27.6026 90.4737 28.8793 90.4737Z" fill="#242424"/>
<path d="M57.1506 90.4737C58.4272 90.4737 59.4621 89.3811 59.4621 88.0333C59.4621 86.6854 58.4272 85.5928 57.1506 85.5928C55.874 85.5928 54.8391 86.6854 54.8391 88.0333C54.8391 89.3811 55.874 90.4737 57.1506 90.4737Z" fill="#242424"/>
<path d="M78.8082 71.2854C80.0848 71.2854 81.1197 70.1928 81.1197 68.8449C81.1197 67.4971 80.0848 66.4044 78.8082 66.4044C77.5316 66.4044 76.4967 67.4971 76.4967 68.8449C76.4967 70.1928 77.5316 71.2854 78.8082 71.2854Z" fill="#242424"/>
<path d="M83.7184 41.8904C84.995 41.8904 86.0299 40.7978 86.0299 39.4499C86.0299 38.1021 84.995 37.0095 83.7184 37.0095C82.4418 37.0095 81.4069 38.1021 81.4069 39.4499C81.4069 40.7978 82.4418 41.8904 83.7184 41.8904Z" fill="#242424"/>
<path d="M69.5827 16.0393C70.8593 16.0393 71.8942 14.9466 71.8942 13.5988C71.8942 12.251 70.8593 11.1583 69.5827 11.1583C68.3061 11.1583 67.2712 12.251 67.2712 13.5988C67.2712 14.9466 68.3061 16.0393 69.5827 16.0393Z" fill="#242424"/>
<path d="M14.2566 24.3439V24.3701C10.3784 24.3701 7.23324 27.6907 7.23324 31.7854H7.20701C7.20701 27.6907 4.06331 24.3701 0.185059 24.3701V24.3439C4.06331 24.3439 7.20701 21.0233 7.20701 16.9286H7.23324C7.23324 21.0233 10.3784 24.3439 14.2566 24.3439Z" fill="#242424"/>
<path d="M85.8448 24.3439V24.3701C81.9665 24.3701 78.8214 27.6907 78.8214 31.7854H78.7951C78.7951 27.6907 75.6514 24.3701 71.7732 24.3701V24.3439C75.6514 24.3439 78.7951 21.0233 78.7951 16.9286H78.8214C78.8214 21.0233 81.9665 24.3439 85.8448 24.3439Z" fill="#242424"/>
<path d="M50.3182 90.6521V90.6783C46.4399 90.6783 43.2948 93.9989 43.2948 98.0936H43.2685C43.2685 93.9989 40.1248 90.6783 36.2466 90.6783V90.6521C40.1248 90.6521 43.2685 87.3315 43.2685 83.2368H43.2948C43.2948 87.3315 46.4399 90.6521 50.3182 90.6521Z" fill="#242424"/>
<path d="M45.6165 3.3845V3.39373C44.1824 3.39373 43.0194 4.62166 43.0194 6.1358H43.0092C43.0092 4.62166 41.8476 3.39373 40.4135 3.39373V3.3845C41.8476 3.3845 43.0092 2.15656 43.0092 0.642426H43.0194C43.0194 2.15656 44.1824 3.3845 45.6165 3.3845Z" fill="#242424"/>
<path fill-rule="evenodd" clip-rule="evenodd" d="M63.7226 41.637C64.3255 39.5733 64.6484 37.3936 64.6484 35.1394H64.6432C64.6432 31.3784 63.7467 27.8258 62.151 24.6831C58.0356 26.1937 54.4647 28.8196 51.8093 32.1926C51.8015 32.2035 51.793 32.2139 51.7844 32.2243C51.7758 32.2348 51.7672 32.2452 51.7595 32.2561C49.3771 31.3911 46.8145 30.8978 44.1419 30.8488C44.0895 30.8488 44.0371 30.8479 43.9847 30.847C43.9323 30.8461 43.8799 30.8452 43.8275 30.8452C43.7754 30.8452 43.7236 30.8461 43.6717 30.847H43.6716H43.6716H43.6716H43.6716C43.6192 30.8479 43.5667 30.8488 43.5132 30.8488C40.8235 30.8706 38.2453 31.3403 35.8458 32.1926C33.1921 28.8196 29.6212 26.1937 25.5041 24.6831C23.9084 27.8258 23.0118 31.3784 23.0118 35.1394C23.0118 37.3936 23.3348 39.5733 23.9376 41.637C23.9617 41.7222 23.9874 41.8038 24.0132 41.8855C24.7071 44.1649 25.7428 46.2976 27.062 48.2216C29.2468 51.4097 32.3522 53.7744 35.875 55.0583C38.2642 55.9288 40.8355 56.4238 43.5167 56.4728C43.5836 56.4746 43.6506 56.4746 43.7176 56.4746H43.831C43.8832 56.4746 43.9349 56.4742 43.9869 56.4737H43.9869H43.9869C44.0393 56.4733 44.0919 56.4728 44.1453 56.4728C45.7564 56.4438 47.328 56.2534 48.843 55.9179C49.451 55.7819 50.0504 55.6241 50.6396 55.4428C55.1174 54.0682 58.9889 51.0615 61.4519 46.8797C62.3691 45.3219 63.1111 43.6481 63.647 41.8855L63.647 41.8854L63.6471 41.8853L63.6471 41.8853L63.6471 41.8852L63.6471 41.8852C63.6728 41.8037 63.6986 41.7222 63.7226 41.637ZM30.9027 41.7875C31.0813 41.9199 31.2874 41.9834 31.4918 41.9834V41.987C31.8182 41.987 32.1377 41.8238 32.3386 41.5209C32.5207 41.2453 32.9243 40.7557 33.5856 40.5616C34.7742 40.2134 35.7773 41.1383 35.8185 41.1782C36.2445 41.5771 36.8954 41.5373 37.275 41.0875C37.6529 40.6378 37.6151 39.9487 37.1892 39.5497C36.9968 39.3684 35.2534 37.8088 33.0325 38.4617C31.7512 38.8389 30.9886 39.7583 30.6485 40.2715C30.3222 40.7647 30.4355 41.443 30.9027 41.7875ZM56.2529 41.9834C56.4573 41.9834 56.6634 41.9199 56.842 41.7875C57.3092 41.443 57.4226 40.7647 57.0962 40.2715C56.7561 39.7583 55.9935 38.8389 54.7122 38.4617C52.4913 37.8088 50.7479 39.3684 50.5556 39.5497C50.1296 39.9487 50.0918 40.6378 50.4697 41.0875C50.8493 41.5373 51.5002 41.5771 51.9262 41.1782C51.9674 41.1383 52.9722 40.2134 54.1591 40.5616C54.8204 40.7557 55.224 41.2453 55.4061 41.5209C55.607 41.8238 55.9265 41.987 56.2529 41.987V41.9834ZM48.7469 44.8759C48.9135 44.301 49.4889 43.9764 50.0351 44.1541H50.0368C50.5796 44.33 50.8853 44.9394 50.717 45.5142C50.5555 46.0782 50.2 46.8797 49.4391 47.5144C48.6421 48.1745 47.7713 48.3468 47.0825 48.3468C46.5518 48.3468 46.1292 48.2453 45.9248 48.1854C44.9596 47.9025 44.2931 47.3095 43.862 46.7709C43.4343 47.3059 42.7662 47.9025 41.7991 48.1854C41.5982 48.2453 41.1739 48.3468 40.6449 48.3468C39.9544 48.3468 39.0853 48.1763 38.2884 47.5144C37.5275 46.8797 37.1719 46.0782 37.007 45.5142C36.8404 44.9412 37.1461 44.3318 37.6906 44.1541C38.2368 43.9782 38.8105 44.301 38.9788 44.8759C39.0561 45.1425 39.221 45.5178 39.5645 45.8044C40.2241 46.3556 41.0829 46.1398 41.2478 46.0909C41.9743 45.8787 42.3866 45.2676 42.5291 45.0137C42.6906 44.7254 42.7919 44.3935 42.828 44.0344V44.0236C42.8538 43.8059 42.8503 43.5793 42.828 43.3453V43.3381C42.7696 42.7288 42.5583 42.0777 42.2045 41.463L42.2029 41.4612C42.2023 41.4605 42.2018 41.4599 42.2015 41.4592C42.2014 41.4589 42.2012 41.4586 42.2012 41.4583C42.2011 41.458 42.2011 41.4578 42.2011 41.4575C41.6806 41.4031 41.2719 40.9443 41.2719 40.3804C41.2719 39.7801 41.7322 39.2923 42.3024 39.2923H45.5934C46.1619 39.2923 46.6239 39.7801 46.6239 40.3804C46.6239 40.9806 46.1636 41.4684 45.5934 41.4684H45.5195C45.1691 42.0759 44.9596 42.7143 44.8977 43.3218C44.872 43.572 44.872 43.8114 44.8977 44.0453V44.0508C44.8977 44.0508 44.8943 44.0526 44.8977 44.0562C44.9372 44.4044 45.0351 44.7308 45.1949 45.0137C45.3391 45.2658 45.7479 45.8787 46.4779 46.0909C46.6428 46.1398 47.4982 46.3538 48.1612 45.8044C48.5047 45.5215 48.6696 45.1425 48.7469 44.8759ZM28.0148 30.1589L28.0149 30.159C28.4466 30.3536 28.9989 30.6027 29.3087 30.809C30.7412 31.7592 31.7237 32.9035 32.3678 33.8265C31.849 34.0514 31.2616 34.3597 30.6536 34.7858C29.3327 35.7071 28.2112 36.9529 27.6787 37.7545C27.701 36.5059 27.6688 35.183 27.6366 33.8601C27.6044 32.5372 27.5722 31.2143 27.5945 29.9657C27.7039 30.0187 27.8506 30.0849 28.0148 30.1589ZM59.9325 30.159C60.0967 30.0849 60.2435 30.0187 60.3528 29.9657C60.3751 31.2143 60.3429 32.5372 60.3107 33.8601C60.2785 35.183 60.2463 36.5059 60.2687 37.7545C59.7362 36.9529 58.6146 35.7071 57.2938 34.7859C56.6857 34.3597 56.0983 34.0514 55.5796 33.8265C56.2237 32.9035 57.2062 31.7592 58.6386 30.809C58.9485 30.6027 59.5008 30.3536 59.9325 30.159Z" fill="#242424"/>
<g opacity="0.31">
<path d="M62.7644 44.2919C62.3831 45.1841 61.9451 46.0473 61.4556 46.8779C58.9908 51.0615 55.121 54.0664 50.6415 55.4428C50.0506 55.6223 49.4529 55.7801 48.8449 55.9161C47.3299 56.2516 45.7583 56.442 44.1472 56.471C44.0407 56.471 43.9377 56.4728 43.8329 56.4728H43.7195C43.6525 56.4728 43.5856 56.4728 43.5186 56.471C40.8374 56.4221 38.2644 55.927 35.8769 55.0565C32.3524 53.7726 29.2487 51.4097 27.0656 48.2198C26.2205 46.9903 25.4923 45.672 24.8945 44.2865C28.1786 48.9071 35.4218 52.1169 43.8312 52.1169C52.2406 52.1169 59.4769 48.9108 62.7627 44.2919H62.7644Z" fill="#565DDF"/>
</g>
<path d="M34.7682 61.3219C34.1207 58.2445 31.7005 55.9596 28.8132 55.9596C25.9259 55.9596 23.5058 58.2427 22.8583 61.3219C22.7449 61.8497 22.6848 62.4028 22.6848 62.9722C22.6848 66.8457 25.4278 69.983 28.8132 69.983C32.1987 69.983 34.9417 66.8457 34.9417 62.9722C34.9417 62.4028 34.8816 61.8515 34.7682 61.3219Z" fill="#242424"/>
<g opacity="0.31">
<path d="M34.9408 62.9722C34.9408 66.8457 32.1978 69.983 28.8124 69.983C25.427 69.983 22.684 66.8457 22.684 62.9722C22.684 62.4028 22.7441 61.8515 22.8574 61.3219C23.505 64.3975 25.9251 66.6807 28.8124 66.6807C31.6997 66.6807 34.1198 64.3975 34.7673 61.3219C34.8807 61.8497 34.9408 62.4028 34.9408 62.9722Z" fill="#565DDF"/>
</g>
</svg>
