<svg width="1045" height="367" viewBox="0 0 1045 367" fill="none" xmlns="http://www.w3.org/2000/svg">
<path fill-rule="evenodd" clip-rule="evenodd" d="M1038.76 196.091C1042.72 183.343 1044.84 169.865 1044.84 155.93L1044.83 155.938C1044.83 132.684 1038.95 110.729 1028.47 91.2913C1001.44 100.634 978.005 116.872 960.571 137.716C960.522 137.785 960.466 137.847 960.411 137.91C960.355 137.973 960.3 138.035 960.25 138.104C944.606 132.752 927.784 129.711 910.236 129.407C909.888 129.407 909.547 129.404 909.205 129.4L909.204 129.4L909.203 129.4C908.861 129.396 908.519 129.392 908.172 129.392C907.824 129.392 907.481 129.396 907.139 129.4C906.797 129.404 906.455 129.407 906.107 129.407C888.452 129.537 871.531 132.448 855.772 137.716C838.338 116.864 814.902 100.626 787.873 91.2913C777.397 110.729 771.51 132.684 771.51 155.938C771.51 169.865 773.628 183.343 777.588 196.099C777.741 196.616 777.91 197.125 778.078 197.627C782.635 211.721 789.44 224.903 798.096 236.8C812.432 256.511 832.817 271.122 855.947 279.066C871.63 284.449 888.513 287.512 906.115 287.809C906.557 287.824 906.992 287.824 907.435 287.824H907.437H908.179C908.527 287.824 908.869 287.82 909.211 287.816C909.554 287.812 909.896 287.809 910.244 287.809C920.826 287.619 931.133 286.44 941.081 284.373C945.072 283.536 949.01 282.556 952.879 281.438C982.279 272.939 1007.7 254.353 1023.87 228.498C1029.89 218.867 1034.75 208.521 1038.27 197.619C1038.44 197.118 1038.61 196.616 1038.76 196.091ZM823.29 197.028C824.468 197.849 825.821 198.244 827.159 198.244L827.151 198.236C829.292 198.236 831.395 197.233 832.71 195.363C833.903 193.668 836.556 190.634 840.899 189.433C848.699 187.274 855.282 192.999 855.557 193.242C858.348 195.713 862.623 195.469 865.115 192.687C867.6 189.912 867.348 185.655 864.557 183.185C863.295 182.075 851.849 172.428 837.267 176.464C828.857 178.798 823.848 184.477 821.616 187.654C819.475 190.703 820.224 194.899 823.29 197.028ZM989.727 198.244C991.065 198.244 992.418 197.849 993.596 197.028C996.662 194.899 997.411 190.703 995.27 187.654C993.037 184.477 988.029 178.798 979.618 176.464C965.037 172.428 953.59 182.075 952.329 183.185C949.538 185.655 949.285 189.912 951.77 192.687C954.263 195.469 958.537 195.713 961.328 193.242C961.603 192.999 968.187 187.274 975.986 189.433C980.329 190.634 982.982 193.668 984.175 195.363C985.49 197.233 987.593 198.236 989.734 198.236L989.727 198.244ZM940.431 216.123C941.532 212.573 945.309 210.566 948.895 211.66L948.911 211.676C952.481 212.77 954.477 216.541 953.376 220.091C952.306 223.573 949.973 228.537 944.98 232.459C939.75 236.549 934.031 237.606 929.512 237.606C926.025 237.606 923.25 236.982 921.912 236.61C915.581 234.861 911.199 231.19 908.37 227.86C905.556 231.174 901.175 234.861 894.828 236.61C893.506 236.982 890.715 237.606 887.243 237.606C882.709 237.606 877.005 236.549 871.775 232.459C866.782 228.537 864.45 223.573 863.364 220.091C862.271 216.541 864.282 212.77 867.852 211.676C871.446 210.589 875.216 212.588 876.317 216.138C876.822 217.788 877.907 220.114 880.155 221.877C884.483 225.275 890.118 223.945 891.204 223.641C895.975 222.326 898.682 218.54 899.615 216.974C900.686 215.188 901.343 213.135 901.58 210.915V210.847C901.748 209.501 901.733 208.103 901.58 206.658V206.605C901.19 202.835 899.799 198.813 897.482 195.012C897.474 195.005 897.459 194.989 897.459 194.982C894.041 194.64 891.357 191.804 891.357 188.315C891.357 184.598 894.385 181.587 898.124 181.587H919.732C923.471 181.587 926.499 184.598 926.499 188.315C926.499 192.032 923.471 195.043 919.732 195.043H919.243C916.942 198.79 915.573 202.743 915.168 206.499C914.999 208.049 914.999 209.532 915.168 210.976V211.007C915.168 211.007 915.152 211.022 915.168 211.037C915.428 213.188 916.07 215.21 917.117 216.959C918.066 218.525 920.757 222.311 925.544 223.626C926.622 223.93 932.242 225.26 936.592 221.862C938.84 220.114 939.926 217.772 940.431 216.123ZM804.316 125.132L804.316 125.132C807.15 126.336 810.782 127.878 812.822 129.157C822.227 135.026 828.681 142.103 832.909 147.812C829.506 149.203 825.653 151.111 821.654 153.742C812.975 159.435 805.619 167.144 802.117 172.093C802.267 164.372 802.054 156.194 801.842 148.017V148.017V148.017C801.63 139.84 801.418 131.665 801.567 123.95V123.942C802.282 124.268 803.242 124.676 804.316 125.132ZM1013.89 125.132C1014.97 124.676 1015.93 124.268 1016.64 123.942V123.95C1016.79 131.665 1016.58 139.84 1016.37 148.017C1016.15 156.194 1015.94 164.372 1016.09 172.093C1012.59 167.144 1005.23 159.435 996.555 153.742C992.556 151.111 988.702 149.203 985.3 147.812C989.528 142.103 995.982 135.026 1005.39 129.157C1007.43 127.878 1011.06 126.336 1013.89 125.132Z" fill="#565DDF"/>
<g opacity="0.31">
<path d="M1032.47 212.519C1029.96 218.038 1027.09 223.374 1023.87 228.505C1007.7 254.367 982.294 272.946 952.879 281.46C949.002 282.57 945.08 283.543 941.081 284.387C931.133 286.455 920.826 287.633 910.243 287.823C909.547 287.823 908.875 287.838 908.179 287.838H907.437C906.994 287.838 906.558 287.838 906.114 287.823C888.513 287.519 871.622 284.456 855.947 279.073C832.809 271.129 812.432 256.526 798.103 236.807C792.552 229.205 787.78 221.056 783.85 212.496C805.413 241.064 852.973 260.905 908.179 260.905C963.385 260.905 1010.89 241.087 1032.47 212.526V212.519Z" fill="#000202"/>
</g>
<path d="M453.646 40.2598V40.3966C431.289 40.3966 413.152 58.4284 413.152 80.6564H412.999C412.999 58.4284 394.877 40.3966 372.519 40.3966V40.2598C394.877 40.2598 412.999 22.228 412.999 0H413.152C413.152 22.228 431.289 40.2598 453.646 40.2598Z" fill="#565DDF"/>
<path d="M3.44846 255.911L79.2155 135.99H24.1622C12.5858 135.99 3.20379 126.663 3.20379 115.153C3.20379 103.644 12.5858 94.3165 24.1622 94.3165H118.701C129.849 94.3165 138.879 103.302 138.879 114.378C138.879 118.567 137.687 122.679 135.446 126.229L59.6716 246.157H119.695C131.271 246.157 140.653 255.485 140.653 266.994C140.653 278.504 131.271 287.831 119.695 287.831H20.1862C9.0379 287.831 0 278.846 0 267.762C0 263.566 1.19281 259.461 3.43317 255.911H3.44846Z" fill="#565DDF"/>
<path d="M310.799 268.059C302.747 276.064 293.396 282.184 282.737 286.418C272.078 290.652 260.364 292.773 247.571 292.773C229.106 292.773 212.406 288.296 197.496 279.356C182.578 270.416 170.856 258.169 162.331 242.631C153.805 227.093 149.546 209.912 149.546 191.075C149.546 172.237 153.805 155.057 162.331 139.519C170.856 123.98 182.578 111.741 197.496 102.794C212.414 93.8537 229.106 89.3762 247.571 89.3762C260.356 89.3762 272.078 91.4972 282.737 95.7314C293.388 99.9657 302.747 106.093 310.799 114.09C310.799 103.166 319.706 94.3175 330.686 94.3175H334.517C345.543 94.3175 354.489 103.204 354.489 114.174V267.976C354.489 278.938 345.551 287.832 334.517 287.832H330.686C319.699 287.832 310.799 278.976 310.799 268.059ZM281.674 242.988C290.429 237.811 297.356 230.688 302.449 221.627C307.541 212.565 310.087 202.386 310.087 191.082C310.087 179.778 307.541 169.607 302.449 160.538C297.356 151.476 290.429 144.353 281.674 139.176C272.911 134 263.086 131.407 252.19 131.407C241.294 131.407 231.415 134 222.53 139.176C213.653 144.353 206.664 151.476 201.571 160.538C196.479 169.607 193.933 179.786 193.933 191.082C193.933 202.379 196.471 212.565 201.571 221.627C206.656 230.696 213.645 237.819 222.53 242.988C231.407 248.165 241.294 250.757 252.19 250.757C263.086 250.757 272.911 248.165 281.674 242.988Z" fill="#565DDF"/>
<path d="M413.083 94.3245C425.248 94.3245 435.104 104.123 435.104 116.218V265.938C435.104 278.033 425.248 287.831 413.083 287.831C400.917 287.831 391.061 278.033 391.061 265.938V116.218C391.061 104.123 400.917 94.3245 413.083 94.3245Z" fill="#565DDF"/>
<path d="M691.01 141.107C684.495 134.395 676.505 131.042 667.039 131.042C656.38 131.042 647.556 134.395 640.575 141.107C633.586 147.82 630.099 156.471 630.099 167.06V265.938C630.099 278.033 620.243 287.832 608.078 287.832C595.913 287.832 586.057 278.033 586.057 265.938V167.06C586.057 156.471 582.8 147.82 576.293 141.107C569.778 134.395 561.673 131.042 551.962 131.042C541.54 131.042 532.9 134.395 526.034 141.107C519.16 147.82 515.734 156.471 515.734 167.06V265.938C515.734 278.033 505.878 287.832 493.713 287.832C481.547 287.832 471.691 278.033 471.691 265.938V112.334C471.691 102.391 479.804 94.325 489.805 94.325H497.62C507.621 94.325 515.734 102.391 515.734 112.334C521.652 105.272 528.702 99.7451 536.868 95.7389C545.035 91.7403 553.744 89.7334 562.973 89.7334C573.632 89.7334 583.449 92.0292 592.457 96.6207C601.449 101.212 609.026 107.742 615.189 116.219C622.056 107.978 630.933 101.509 641.829 96.7956C652.717 92.09 664.079 89.7334 675.924 89.7334C689.182 89.7334 701.019 92.9718 711.441 99.441C721.855 105.918 730.021 114.979 735.947 126.633C741.865 138.287 744.824 151.651 744.824 166.71V265.938C744.824 278.033 734.968 287.832 722.803 287.832C710.638 287.832 700.782 278.033 700.782 265.938V167.06C700.782 156.471 697.524 147.82 691.017 141.107H691.01Z" fill="#565DDF"/>
<path d="M2.08013 356.849C0.7038 355.329 0.015625 353.261 0.015625 350.639V328.502H4.90159V334.553H9.87932V339.281H4.90159V350.198C4.90159 352.912 6.14793 354.265 8.63298 354.265H9.87932V359.122H8.1895C5.49036 359.122 3.45646 358.362 2.08013 356.849Z" fill="#242424"/>
<path d="M13.2587 326.077H18.1447V337.389C18.9475 336.324 19.9645 335.503 21.2109 334.918C22.4572 334.325 23.8335 334.036 25.3475 334.036C27.2438 334.036 28.9336 334.469 30.417 335.336C31.9003 336.203 33.055 337.419 33.8807 338.977C34.7065 340.536 35.1271 342.337 35.1271 344.367V358.682H30.1952V344.367C30.1952 342.657 29.66 341.273 28.5971 340.216C27.5267 339.16 26.1351 338.628 24.4223 338.628C22.5872 338.628 21.0809 339.183 19.911 340.285C18.7411 341.387 18.16 342.824 18.16 344.595V358.689H13.274V326.084L13.2587 326.077Z" fill="#242424"/>
<path d="M44.3179 357.579C42.3604 356.462 40.8236 354.934 39.6995 353.003C38.5755 351.072 38.0097 348.943 38.0097 346.617C38.0097 344.291 38.5755 342.162 39.6995 340.231C40.8236 338.301 42.3681 336.78 44.3179 335.655C46.2753 334.538 48.424 333.975 50.7637 333.975C53.1035 333.975 55.0762 334.538 56.9419 335.655C58.8076 336.773 60.2833 338.301 61.3615 340.231C62.4396 342.162 62.9825 344.291 62.9825 346.617C62.9825 347.354 62.8907 348.107 62.7148 348.867H43.2474C43.6909 350.578 44.6008 351.961 45.9772 353.018C47.3535 354.075 48.9439 354.607 50.7561 354.607C52.033 354.607 53.2258 354.28 54.3345 353.634C55.4433 352.987 56.2385 352.128 56.7125 351.072H62.2255C61.545 353.52 60.1533 355.488 58.0506 356.994C55.9479 358.499 53.5164 359.244 50.7637 359.244C48.424 359.244 46.2753 358.681 44.3179 357.564V357.579ZM57.7907 344.45C57.3778 342.71 56.5214 341.303 55.2368 340.231C53.9446 339.16 52.4612 338.62 50.7713 338.62C48.9362 338.62 47.3305 339.16 45.9465 340.231C44.5702 341.311 43.6603 342.71 43.2168 344.45H57.7907Z" fill="#242424"/>
<path d="M95.2042 356.074C94.1643 357.078 92.9485 357.853 91.5569 358.416C90.1653 358.978 88.6666 359.252 87.0685 359.252C84.7288 359.252 82.6184 358.689 80.7374 357.572C78.8564 356.454 77.3807 354.926 76.3179 352.995C75.255 351.064 74.7198 348.936 74.7198 346.61C74.7198 344.284 75.255 342.155 76.3179 340.224C77.3807 338.293 78.8564 336.773 80.7374 335.648C82.6184 334.53 84.7288 333.968 87.0685 333.968C88.6666 333.968 90.1653 334.249 91.5569 334.804C92.9485 335.366 94.1643 336.142 95.2042 337.145V334.538H100.136V358.659H95.2042V356.051V356.074ZM91.404 353.581C92.5739 352.889 93.4991 351.939 94.1796 350.73C94.8601 349.521 95.2042 348.153 95.2042 346.617C95.2042 345.082 94.8601 343.713 94.1796 342.505C93.4991 341.296 92.5739 340.346 91.404 339.654C90.2341 338.962 88.9189 338.612 87.4738 338.612C86.0286 338.612 84.6982 338.962 83.4977 339.654C82.2973 340.346 81.3568 341.296 80.6763 342.505C79.9958 343.713 79.6516 345.082 79.6516 346.617C79.6516 348.153 79.9881 349.521 80.6763 350.73C81.3568 351.939 82.2973 352.889 83.4977 353.581C84.6982 354.272 86.021 354.622 87.4738 354.622C88.9266 354.622 90.2341 354.272 91.404 353.581Z" fill="#242424"/>
<path d="M105.114 334.553H109.954V337.206C110.994 336.172 112.202 335.382 113.601 334.819C115 334.256 116.507 333.983 118.135 333.983C120.475 333.983 122.585 334.545 124.466 335.663C126.347 336.78 127.823 338.308 128.886 340.239C129.949 342.17 130.484 344.299 130.484 346.625C130.484 348.951 129.949 351.079 128.886 353.01C127.815 354.941 126.347 356.462 124.466 357.587C122.585 358.704 120.475 359.267 118.135 359.267C116.537 359.267 115.038 358.985 113.647 358.431C112.255 357.868 111.039 357.093 110 356.089V366.299H105.114V334.576V334.553ZM113.8 339.661C112.63 340.353 111.705 341.303 111.024 342.512C110.344 343.721 110 345.089 110 346.625C110 348.16 110.336 349.529 111.024 350.737C111.705 351.946 112.63 352.896 113.8 353.588C114.97 354.28 116.285 354.63 117.73 354.63C119.175 354.63 120.506 354.28 121.706 353.588C122.906 352.896 123.847 351.946 124.528 350.737C125.208 349.529 125.552 348.16 125.552 346.625C125.552 345.089 125.208 343.721 124.528 342.512C123.847 341.303 122.906 340.353 121.706 339.661C120.506 338.97 119.183 338.62 117.73 338.62C116.277 338.62 114.97 338.97 113.8 339.661Z" fill="#242424"/>
<path d="M133.871 334.553H138.711V337.206C139.751 336.172 140.959 335.382 142.359 334.819C143.758 334.256 145.264 333.983 146.893 333.983C149.233 333.983 151.343 334.545 153.224 335.663C155.105 336.78 156.581 338.308 157.644 340.239C158.706 342.17 159.242 344.299 159.242 346.625C159.242 348.951 158.706 351.079 157.644 353.01C156.573 354.941 155.105 356.462 153.224 357.587C151.343 358.704 149.233 359.267 146.893 359.267C145.295 359.267 143.796 358.985 142.405 358.431C141.013 357.868 139.797 357.093 138.757 356.089V366.299H133.871V334.576V334.553ZM142.558 339.661C141.388 340.353 140.462 341.303 139.782 342.512C139.101 343.721 138.757 345.089 138.757 346.625C138.757 348.16 139.094 349.529 139.782 350.737C140.462 351.946 141.388 352.896 142.558 353.588C143.727 354.28 145.043 354.63 146.488 354.63C147.933 354.63 149.263 354.28 150.464 353.588C151.664 352.896 152.605 351.946 153.285 350.737C153.966 349.529 154.31 348.16 154.31 346.625C154.31 345.089 153.966 343.721 153.285 342.512C152.605 341.303 151.664 340.353 150.464 339.661C149.263 338.97 147.94 338.62 146.488 338.62C145.035 338.62 143.727 338.97 142.558 339.661Z" fill="#242424"/>
<path d="M174.863 327.818C176.446 326.275 178.525 325.499 181.11 325.499H183.243V330.311H181.11C179.894 330.311 178.977 330.646 178.357 331.307C177.738 331.969 177.424 332.85 177.424 333.937V334.553H183.243V339.282H177.424V358.674H172.493V333.93C172.493 331.398 173.288 329.354 174.871 327.81L174.863 327.818Z" fill="#242424"/>
<path d="M189.681 357.579C187.724 356.462 186.187 354.934 185.063 353.003C183.939 351.072 183.373 348.943 183.373 346.617C183.373 344.291 183.939 342.17 185.063 340.254C186.187 338.339 187.731 336.826 189.681 335.701C191.639 334.583 193.787 334.021 196.127 334.021C198.467 334.021 200.6 334.583 202.527 335.701C204.454 336.818 205.975 338.339 207.107 340.254C208.231 342.17 208.797 344.291 208.797 346.617C208.797 348.943 208.231 351.072 207.107 353.003C205.983 354.934 204.454 356.454 202.527 357.579C200.6 358.697 198.467 359.259 196.127 359.259C193.787 359.259 191.639 358.697 189.681 357.579ZM200.042 353.558C201.227 352.851 202.16 351.893 202.841 350.684C203.521 349.476 203.865 348.122 203.865 346.617C203.865 345.112 203.513 343.759 202.818 342.55C202.122 341.341 201.181 340.391 199.996 339.699C198.811 339.008 197.511 338.658 196.089 338.658C194.667 338.658 193.321 339.008 192.136 339.699C190.951 340.391 190.018 341.341 189.337 342.55C188.657 343.759 188.313 345.112 188.313 346.617C188.313 348.122 188.657 349.476 189.36 350.684C190.056 351.893 190.996 352.851 192.182 353.558C193.367 354.265 194.682 354.622 196.135 354.622C197.588 354.622 198.857 354.265 200.05 353.558H200.042Z" fill="#242424"/>
<path d="M212.169 334.553H217.01V337.472C217.835 336.354 218.852 335.48 220.053 334.864C221.253 334.249 222.545 333.937 223.937 333.937C224.472 333.937 225.122 334.028 225.895 334.203V338.711H223.853C221.842 338.711 220.198 339.312 218.944 340.52C217.682 341.729 217.055 343.554 217.055 346.001V358.681H212.169V334.56V334.553Z" fill="#242424"/>
<path d="M241.302 327.818C242.884 326.275 244.964 325.499 247.549 325.499H249.682V330.311H247.549C246.333 330.311 245.415 330.646 244.796 331.307C244.177 331.969 243.863 332.85 243.863 333.937V334.553H249.682V339.282H243.863V358.674H238.931V333.93C238.931 331.398 239.726 329.354 241.309 327.81L241.302 327.818Z" fill="#242424"/>
<path d="M252.121 326.647H257.099V331.55H252.121V326.647ZM252.167 334.553H257.053V358.674H252.167V334.553Z" fill="#242424"/>
<path d="M277.01 340.209C275.97 339.152 274.624 338.62 272.965 338.62C271.183 338.62 269.738 339.175 268.606 340.277C267.475 341.379 266.917 342.816 266.917 344.587V358.681H262.031V334.56H266.917V337.388C267.719 336.324 268.721 335.503 269.937 334.918C271.153 334.325 272.468 334.036 273.89 334.036C275.756 334.036 277.415 334.469 278.868 335.336C280.321 336.202 281.445 337.419 282.247 338.977C283.05 340.535 283.448 342.337 283.448 344.367V358.681H278.562V344.367C278.562 342.656 278.042 341.273 277.01 340.216V340.209Z" fill="#242424"/>
<path d="M306.83 356.074C305.79 357.078 304.574 357.853 303.183 358.416C301.791 358.978 300.292 359.252 298.694 359.252C296.355 359.252 294.244 358.689 292.363 357.572C290.482 356.454 289.007 354.926 287.944 352.995C286.881 351.064 286.346 348.936 286.346 346.61C286.346 344.284 286.881 342.155 287.944 340.224C289.007 338.293 290.482 336.773 292.363 335.648C294.244 334.53 296.355 333.968 298.694 333.968C300.292 333.968 301.791 334.249 303.183 334.804C304.574 335.366 305.79 336.142 306.83 337.145V334.538H311.762V358.659H306.83V356.051V356.074ZM303.03 353.581C304.2 352.889 305.125 351.939 305.805 350.73C306.486 349.521 306.83 348.153 306.83 346.617C306.83 345.082 306.486 343.713 305.805 342.505C305.125 341.296 304.2 340.346 303.03 339.654C301.86 338.962 300.545 338.612 299.1 338.612C297.654 338.612 296.324 338.962 295.124 339.654C293.923 340.346 292.983 341.296 292.302 342.505C291.622 343.713 291.278 345.082 291.278 346.617C291.278 348.153 291.614 349.521 292.302 350.73C292.983 351.939 293.923 352.889 295.124 353.581C296.324 354.272 297.647 354.622 299.1 354.622C300.552 354.622 301.86 354.272 303.03 353.581Z" fill="#242424"/>
<path d="M331.711 340.209C330.671 339.152 329.326 338.62 327.666 338.62C325.885 338.62 324.44 339.175 323.308 340.277C322.176 341.379 321.618 342.816 321.618 344.587V358.681H316.732V334.56H321.618V337.388C322.421 336.324 323.423 335.503 324.638 334.918C325.854 334.325 327.169 334.036 328.592 334.036C330.457 334.036 332.117 334.469 333.569 335.336C335.022 336.202 336.146 337.419 336.949 338.977C337.752 340.535 338.149 342.337 338.149 344.367V358.681H333.263V344.367C333.263 342.656 332.744 341.273 331.711 340.216V340.209Z" fill="#242424"/>
<path d="M347.356 357.579C345.398 356.462 343.861 354.934 342.737 353.003C341.613 351.072 341.047 348.943 341.047 346.617C341.047 344.291 341.613 342.162 342.737 340.231C343.861 338.301 345.406 336.78 347.356 335.655C349.313 334.538 351.462 333.975 353.801 333.975C355.224 333.975 356.516 334.165 357.67 334.553V339.676C356.546 338.97 355.254 338.62 353.801 338.62C352.349 338.62 351.026 338.97 349.825 339.676C348.625 340.383 347.677 341.341 346.981 342.55C346.285 343.759 345.933 345.112 345.933 346.617C345.933 348.122 346.285 349.475 346.981 350.684C347.677 351.893 348.625 352.851 349.825 353.558C351.026 354.265 352.349 354.622 353.801 354.622C355.254 354.622 356.485 354.265 357.67 353.558V358.681C356.516 359.061 355.224 359.259 353.801 359.259C351.462 359.259 349.313 358.696 347.356 357.579Z" fill="#242424"/>
<path d="M365.669 357.579C363.711 356.462 362.174 354.934 361.05 353.003C359.926 351.072 359.36 348.943 359.36 346.617C359.36 344.291 359.926 342.162 361.05 340.231C362.174 338.301 363.719 336.78 365.669 335.655C367.626 334.538 369.775 333.975 372.114 333.975C374.454 333.975 376.427 334.538 378.293 335.655C380.158 336.773 381.634 338.301 382.712 340.231C383.79 342.162 384.333 344.291 384.333 346.617C384.333 347.354 384.241 348.107 384.065 348.867H364.598C365.042 350.578 365.951 351.961 367.328 353.018C368.704 354.075 370.295 354.607 372.107 354.607C373.384 354.607 374.576 354.28 375.685 353.634C376.794 352.987 377.589 352.128 378.063 351.072H383.576C382.896 353.52 381.504 355.488 379.401 356.994C377.299 358.499 374.867 359.244 372.114 359.244C369.775 359.244 367.626 358.681 365.669 357.564V357.579ZM379.134 344.45C378.721 342.71 377.864 341.303 376.58 340.231C375.288 339.16 373.804 338.62 372.114 338.62C370.279 338.62 368.674 339.16 367.29 340.231C365.913 341.311 365.003 342.71 364.56 344.45H379.134Z" fill="#242424"/>
<path d="M386.466 358.324V353.201C388.661 354.174 390.48 354.66 391.933 354.66C392.851 354.66 393.585 354.44 394.135 353.999C394.686 353.558 394.961 352.881 394.961 351.969C394.961 351.293 394.678 350.669 394.12 350.114C393.554 349.552 392.682 348.86 391.497 348.039C390.373 347.271 389.463 346.595 388.768 346.009C388.072 345.424 387.468 344.702 386.971 343.843C386.466 342.991 386.214 342.033 386.214 340.969C386.214 338.673 386.963 336.94 388.462 335.777C389.96 334.614 391.849 334.029 394.128 334.029C395.458 334.029 396.865 334.264 398.348 334.736V339.768C397.668 339.388 396.957 339.091 396.215 338.886C395.473 338.681 394.778 338.575 394.128 338.575C393.21 338.575 392.468 338.757 391.903 339.129C391.337 339.502 391.061 340.065 391.061 340.832C391.061 341.395 391.321 341.919 391.841 342.421C392.361 342.923 393.179 343.584 394.311 344.413C395.466 345.241 396.406 345.979 397.133 346.648C397.859 347.309 398.486 348.1 399.021 349.012C399.556 349.924 399.824 350.943 399.824 352.06C399.824 354.386 399.128 356.173 397.737 357.404C396.345 358.644 394.418 359.259 391.956 359.259C390.174 359.259 388.355 358.948 386.489 358.332L386.466 358.324Z" fill="#242424"/>
</svg>
